<?xml version="1.0" encoding="UTF-8"?> <svg xmlns="http://www.w3.org/2000/svg" id="Layer_1" data-name="Layer 1" version="1.1" viewBox="0 0 841.9 298.8"><defs><style> .cls-1 { fill: #c49a6c; } .cls-1, .cls-2 { stroke-width: 0px; } .cls-2 { fill: #fff; } </style></defs><g><path class="cls-1" d="M410.5,91.8h-46.3c-.7,0-1.3-.6-1.3-1.3V7.4c0-.7.6-1.3,1.3-1.3h46.3c.7,0,1.3.6,1.3,1.3v83.1c0,.7-.6,1.3-1.3,1.3ZM365.5,89.2h43.7V8.7h-43.7v80.5Z"></path><path class="cls-1" d="M478.5,42.4h-61.9c-.7,0-1.3-.6-1.3-1.3V7.4c0-.7.6-1.3,1.3-1.3h61.9c.7,0,1.3.6,1.3,1.3v33.7c0,.7-.6,1.3-1.3,1.3ZM417.9,39.8h59.3V8.7h-59.3v31.1Z"></path><path class="cls-1" d="M478.5,123h-114.3c-.7,0-1.3-.6-1.3-1.3v-25.4c0-.7.6-1.3,1.3-1.3h48.7s0,0,.2,0c.1,0,.4,0,.6,0,.3,0,.7-.2,1-.5.4-.4.6-.8.6-1.4v-46.2c0-.7.6-1.3,1.3-1.3h61.9c.7,0,1.3.6,1.3,1.3v74.8c0,.7-.6,1.3-1.3,1.3ZM365.5,120.4h111.7V48.2h-59.3v45c-.1,1.3-.6,2.3-1.4,3.1-.8.8-1.8,1.3-2.9,1.3s-.2,0-.3,0c0,0-.2,0-.3,0h-47.4v22.8Z"></path></g><g><path class="cls-2" d="M39.8,226.1c.4,0,.8.2,1.1.5.3.3.5.7.5,1.1s-.2.8-.5,1.1c-.3.3-.7.4-1.1.4H11.1c-.5,0-.8-.2-1.1-.5-.3-.3-.4-.7-.4-1.1v-51.6c0-.4.2-.8.5-1.1.3-.3.7-.5,1.2-.5s.9.2,1.2.5.5.7.5,1.1v51.4l-1.4-1.4h28.4Z"></path><path class="cls-2" d="M87.6,178.5l-19.8,49.7c-.1.3-.3.6-.5.7-.3.2-.5.3-.9.3-.5,0-.9-.1-1.2-.4-.3-.3-.4-.6-.5-.9,0-.2,0-.5,0-.8l21-51.7c.2-.4.4-.7.6-.8.2-.1.5-.2.9-.2s.8,0,1,.3c.3.2.4.4.5.7l21,51.7c0,.2,0,.4,0,.6,0,.5-.2.8-.5,1.1-.3.3-.7.4-1.2.4s-.7,0-1-.3c-.3-.2-.5-.4-.6-.7l-20.4-50.3,1.2.6ZM73.1,212.2l1.1-3.1h25.3l.8,3.1h-27.2Z"></path><path class="cls-2" d="M179.6,174.5c.5,0,.8.1,1.1.4.3.3.4.6.4,1.1v51.5c0,.6-.2,1-.5,1.3-.3.3-.7.4-1.1.4s-.4,0-.7-.2-.4-.3-.6-.5l-36.3-49.5,1.1-.5v49.4c0,.4-.1.7-.4.9-.3.3-.6.4-1.1.4s-.8-.1-1.1-.4c-.3-.3-.4-.6-.4-.9v-51.8c0-.6.2-1,.5-1.2.3-.2.6-.4.9-.4s.4,0,.6.1c.2,0,.4.2.5.4l36.1,49.2-.6,1.6v-49.8c0-.4.2-.8.5-1.1.3-.3.7-.4,1-.4Z"></path><path class="cls-2" d="M217.8,174.5h29.5c.4,0,.8.2,1.1.5.3.3.5.7.5,1.1s-.2.8-.5,1.1c-.3.3-.7.4-1.1.4h-28.5l.8-1.3v24.2l-.9-1.1h25.2c.4,0,.8.2,1.1.5s.5.7.5,1.1-.2.8-.5,1.1c-.3.3-.7.4-1.1.4h-25l.8-.9v24.8l-.3-.4h28c.4,0,.8.2,1.1.5s.5.7.5,1.1-.2.8-.5,1.1c-.3.3-.7.4-1.1.4h-29.5c-.4,0-.8-.2-1.1-.5-.3-.3-.5-.7-.5-1.1v-51.6c0-.4.2-.8.5-1.1s.7-.5,1.1-.5Z"></path><path class="cls-2" d="M294.4,230c-4.1,0-7.6-.6-10.5-2-2.9-1.4-5.7-3.5-8.4-6.2-.1-.1-.2-.2-.3-.4-.1-.2-.2-.4-.2-.7s.2-.8.5-1.2c.4-.4.8-.6,1.2-.6s.9.2,1.3.7c2.1,2.4,4.5,4.2,7.3,5.5,2.8,1.3,5.7,1.9,8.7,1.9s5-.4,7.1-1.3c2.1-.9,3.7-2.1,4.9-3.7,1.2-1.6,1.8-3.5,1.8-5.6,0-2.7-.8-4.8-2.2-6.4-1.4-1.6-3.2-2.9-5.4-4s-4.5-2-7-2.9c-1.9-.7-3.8-1.5-5.7-2.3-1.9-.8-3.6-1.7-5.1-2.9-1.5-1.1-2.7-2.5-3.6-4.2-.9-1.7-1.3-3.8-1.3-6.3s.7-4.9,2.1-6.9,3.4-3.7,5.9-4.9c2.6-1.2,5.6-1.8,9.2-1.8s5.9.5,8.7,1.6c2.8,1.1,5,2.7,6.6,4.8.5.7.8,1.3.8,1.6s-.2.7-.6,1.1c-.4.4-.8.5-1.3.5s-.8-.2-1-.5c-.9-1.2-2.1-2.3-3.4-3.2-1.3-.9-2.8-1.6-4.5-2.1-1.7-.5-3.4-.7-5.3-.7s-4.9.4-7,1.3c-2.1.8-3.8,2-5,3.6-1.2,1.5-1.9,3.4-1.9,5.7s.7,4.4,2.1,5.9c1.4,1.5,3.1,2.8,5.3,3.8s4.3,1.9,6.6,2.8c2,.7,3.9,1.4,5.9,2.2,2,.8,3.7,1.8,5.3,3,1.6,1.2,2.9,2.7,3.8,4.5.9,1.8,1.4,4.1,1.4,6.9s-.7,4.6-2.1,6.6c-1.4,2-3.3,3.7-5.8,4.9s-5.5,1.9-9,2Z"></path><path class="cls-2" d="M365.2,174.5c4.2,0,7.5,1.2,10,3.6,2.5,2.4,3.8,5.6,3.8,9.7s-.4,4.2-1.3,6.2-2.1,3.7-3.8,5c-1.7,1.3-3.7,2.1-6.2,2.3l-.5-.9c2,0,3.9.3,5.7.9,1.8.6,3.3,1.5,4.6,2.7s2.3,2.7,3.1,4.4c.8,1.7,1.1,3.8,1.1,6.1s-.4,4.7-1.3,6.5-2,3.4-3.4,4.6c-1.5,1.2-3.2,2.1-5.1,2.7-1.9.6-4,.9-6.2.9h-21.6c-.4,0-.8-.2-1.1-.5s-.5-.7-.5-1.1v-51.6c0-.4.2-.8.5-1.1.3-.3.7-.5,1.1-.5h21ZM364.8,177.6h-19.8l.9-1.5v24.8l-.8-1.3h19.7c3.1,0,5.7-1.1,7.7-3,2.1-2,3.1-4.9,3.1-8.8s-.9-5.5-2.8-7.3c-1.9-1.8-4.6-2.8-8-2.8ZM365.3,202.8h-19.8l.3-.5v24.4l-.4-.6h19.8c3.7,0,6.8-.9,9.3-2.8,2.5-1.8,3.7-4.8,3.7-8.9s-.6-4.9-1.7-6.6c-1.1-1.7-2.7-3-4.7-3.8-2-.8-4.2-1.2-6.6-1.2Z"></path><path class="cls-2" d="M461.2,201.8c0,4.2-.6,8-1.9,11.4-1.3,3.4-3.1,6.4-5.4,8.9-2.3,2.5-5.1,4.4-8.3,5.8-3.2,1.4-6.7,2-10.5,2s-7.3-.7-10.5-2c-3.2-1.4-5.9-3.3-8.3-5.8-2.3-2.5-4.2-5.5-5.4-8.9-1.3-3.4-1.9-7.2-1.9-11.4s.6-8,1.9-11.4c1.3-3.4,3.1-6.4,5.4-8.9,2.3-2.5,5.1-4.4,8.3-5.8,3.2-1.4,6.7-2,10.5-2s7.3.7,10.5,2c3.2,1.4,5.9,3.3,8.3,5.8,2.3,2.5,4.2,5.5,5.4,8.9,1.3,3.4,1.9,7.2,1.9,11.4ZM457.9,201.8c0-5-1-9.4-2.9-13.1-2-3.7-4.6-6.7-8-8.8-3.4-2.1-7.4-3.1-11.8-3.1s-8.4,1-11.8,3.1c-3.4,2.1-6.1,5-8.1,8.8-2,3.7-2.9,8.1-2.9,13.1s1,9.4,2.9,13.1c2,3.8,4.6,6.7,8.1,8.8,3.4,2.1,7.4,3.1,11.8,3.1s8.4-1,11.8-3.1c3.4-2.1,6.1-5,8-8.8,2-3.7,2.9-8.1,2.9-13.1Z"></path><path class="cls-2" d="M494.1,229.2c-.5,0-.9-.2-1.2-.5-.3-.3-.4-.7-.4-1.1v-51.6c0-.4.2-.8.5-1.1.3-.3.7-.5,1.1-.5h20.6c3.1,0,5.8.6,8.1,1.8,2.3,1.2,4.1,2.9,5.4,5s2,4.6,2,7.3-.4,4.6-1.3,6.5-2.1,3.5-3.6,4.8c-1.5,1.3-3.3,2.2-5.3,2.8l-3.6-.6c2.1,0,4.1.5,5.9,1.6,1.9,1.1,3.4,2.6,4.6,4.7,1.2,2.1,1.8,4.6,1.8,7.5s.1,4.5.4,5.8c.2,1.3.5,2.3.9,2.9.4.6.8,1.1,1.4,1.5.3.2.5.5.7.8.2.3.2.7,0,1.1-.1.3-.3.6-.5.7-.2.2-.5.3-.7.4-.3,0-.5,0-.9-.2-.7-.4-1.4-1-2.1-1.9-.7-.8-1.3-2.1-1.8-3.8-.5-1.7-.7-4.2-.7-7.3s-.4-4.4-1.1-5.9c-.8-1.5-1.7-2.6-2.9-3.4s-2.4-1.3-3.8-1.6c-1.3-.3-2.5-.4-3.6-.4h-19l.7-.9v23.8c0,.4-.2.8-.5,1.1-.3.3-.7.5-1.2.5ZM494.9,201.6h20.1c2.1-.2,4-.8,5.8-1.9,1.8-1,3.2-2.5,4.3-4.4,1.1-1.9,1.7-4.1,1.7-6.6s-1.1-5.8-3.4-7.9c-2.3-2.1-5.3-3.2-9.2-3.2h-18.9l.4-.5v25.4l-.8-.9Z"></path><path class="cls-2" d="M612.1,201.8c0,4.2-.6,8-1.9,11.4s-3.1,6.4-5.4,8.9c-2.3,2.5-5.1,4.4-8.3,5.8-3.2,1.4-6.7,2-10.5,2s-7.3-.7-10.5-2c-3.2-1.4-5.9-3.3-8.3-5.8-2.3-2.5-4.2-5.5-5.4-8.9-1.3-3.4-1.9-7.2-1.9-11.4s.6-8,1.9-11.4c1.3-3.4,3.1-6.4,5.4-8.9,2.3-2.5,5.1-4.4,8.3-5.8,3.2-1.4,6.7-2,10.5-2s7.3.7,10.5,2c3.2,1.4,5.9,3.3,8.3,5.8,2.3,2.5,4.2,5.5,5.4,8.9,1.3,3.4,1.9,7.2,1.9,11.4ZM608.9,201.8c0-5-1-9.4-2.9-13.1-2-3.7-4.6-6.7-8-8.8-3.4-2.1-7.4-3.1-11.8-3.1s-8.4,1-11.8,3.1c-3.4,2.1-6.1,5-8.1,8.8-2,3.7-2.9,8.1-2.9,13.1s1,9.4,2.9,13.1c2,3.8,4.6,6.7,8.1,8.8,3.4,2.1,7.4,3.1,11.8,3.1s8.4-1,11.8-3.1c3.4-2.1,6.1-5,8-8.8,2-3.7,2.9-8.1,2.9-13.1Z"></path><path class="cls-2" d="M682.1,174.5c.5,0,.8.2,1.1.5.3.3.4.7.4,1.1v33.8c0,3.7-.9,7.1-2.7,10.1-1.8,3-4.2,5.5-7.3,7.3-3,1.8-6.4,2.7-10.1,2.7s-7.1-.9-10.1-2.7c-3-1.8-5.5-4.3-7.3-7.3-1.8-3-2.7-6.4-2.7-10.1v-33.8c0-.4.1-.8.4-1.1.3-.3.7-.5,1.2-.5s.9.2,1.2.5c.3.3.5.7.5,1.1v33.8c0,3.1.8,6,2.3,8.6,1.5,2.6,3.6,4.6,6.1,6.2,2.6,1.5,5.4,2.3,8.5,2.3s6-.8,8.5-2.3c2.6-1.5,4.6-3.6,6.1-6.2,1.5-2.6,2.3-5.4,2.3-8.6v-33.8c0-.4.1-.8.4-1.1.3-.3.7-.5,1.1-.5Z"></path><path class="cls-2" d="M742.9,230c-4.1,0-7.8-.7-11.2-2.1-3.4-1.4-6.4-3.3-8.9-5.9-2.5-2.5-4.5-5.5-5.9-8.9-1.4-3.4-2.1-7.2-2.1-11.2s.7-7.8,2.1-11.3c1.4-3.4,3.3-6.4,5.9-8.9,2.5-2.5,5.5-4.5,8.9-5.9,3.4-1.4,7.1-2.1,11.2-2.1s5.6.4,8.3,1.1c2.7.7,5,1.8,7.1,3.2.3.2.4.4.5.6.1.2.2.5.2.7,0,.5-.2.9-.5,1.2-.4.3-.7.4-.9.4s-.4,0-.5-.1c-.2,0-.3-.1-.5-.2-1.9-1.1-4-2-6.3-2.7-2.3-.7-4.7-1-7.3-1-4.8,0-9.1,1.1-12.9,3.2-3.7,2.2-6.6,5.1-8.8,8.9-2.1,3.7-3.2,8-3.2,12.9s1.1,9.2,3.2,12.9c2.1,3.8,5,6.7,8.8,8.9,3.7,2.1,8,3.2,12.9,3.2s5.2-.4,7.7-1.2c2.5-.8,4.8-1.9,6.7-3.2l-.3,1.4v-19.5l1.1,1h-15.2c-.4,0-.8-.2-1.1-.5s-.5-.7-.5-1.1.2-.8.5-1.1c.3-.3.7-.4,1.1-.4h15.6c.5,0,.8.2,1.1.5.3.3.4.7.4,1.1v19.6c0,.2,0,.4-.2.7s-.3.5-.5.7c-2.3,1.6-4.9,2.8-7.7,3.8-2.8.9-5.8,1.4-8.8,1.4Z"></path><path class="cls-2" d="M794.2,174.5c.5,0,.9.2,1.2.5s.5.7.5,1.2v51.4c0,.5-.2.9-.5,1.2-.3.3-.7.5-1.1.5s-.9-.2-1.2-.5c-.3-.3-.4-.7-.4-1.2v-51.4c0-.5.2-.9.5-1.2.3-.3.7-.5,1.2-.5ZM793.8,199.5h37.9l-.2,3.1h-38.2l.5-3.1ZM831.5,174.5c.5,0,.9.2,1.2.5s.5.7.5,1.2v51.4c0,.5-.2.9-.5,1.2-.3.3-.7.5-1.1.5s-.9-.2-1.2-.5c-.3-.3-.4-.7-.4-1.2v-51.4c0-.5.2-.9.5-1.2s.7-.5,1.2-.5Z"></path></g><g><path class="cls-2" d="M327,260.4c.4,0,.7.1,1,.4s.4.6.4,1v28.4c0,.4-.2.7-.5,1-.3.3-.6.4-1,.4s-.8-.1-1-.4-.4-.6-.4-1v-28.4c0-.4.1-.7.4-1s.6-.4,1-.4ZM326.8,274.3h21.2v2.6h-21.3l.2-2.6ZM347.9,260.4c.4,0,.7.1,1,.4.3.3.4.6.4,1v28.4c0,.4-.2.7-.4,1s-.6.4-1,.4-.7-.1-1-.4-.4-.6-.4-1v-28.4c0-.4.1-.7.4-1s.6-.4,1-.4Z"></path><path class="cls-2" d="M396.6,276c0,2.3-.4,4.5-1.1,6.4-.7,1.9-1.8,3.6-3.1,5.1-1.3,1.4-2.9,2.6-4.7,3.3-1.8.8-3.8,1.2-6,1.2s-4.2-.4-6-1.2c-1.8-.8-3.4-1.9-4.7-3.3-1.3-1.4-2.4-3.1-3.1-5.1-.7-1.9-1.1-4.1-1.1-6.4s.4-4.5,1.1-6.4c.7-1.9,1.8-3.6,3.1-5.1,1.3-1.4,2.9-2.6,4.7-3.3,1.8-.8,3.8-1.2,6-1.2s4.2.4,6,1.2c1.8.8,3.4,1.9,4.7,3.3,1.3,1.4,2.4,3.1,3.1,5.1.7,1.9,1.1,4.1,1.1,6.4ZM393.7,276c0-2.6-.5-5-1.6-7-1-2-2.5-3.6-4.3-4.7-1.8-1.1-3.9-1.7-6.3-1.7s-4.4.6-6.3,1.7c-1.8,1.1-3.3,2.7-4.3,4.7-1,2-1.5,4.3-1.5,7s.5,5,1.5,7c1,2,2.4,3.6,4.3,4.7,1.8,1.1,3.9,1.7,6.3,1.7s4.5-.6,6.3-1.7c1.8-1.1,3.2-2.7,4.3-4.7,1-2,1.6-4.3,1.6-7Z"></path><path class="cls-2" d="M415.4,260.4c.2,0,.4,0,.6.2.2.1.4.2.6.4l12.3,18.4h-1.2s12.3-18.4,12.3-18.4c.3-.4.7-.6,1.2-.6.4,0,.7.1.9.4s.4.6.4,1v28.5c0,.4-.1.7-.4.9-.3.3-.6.4-1,.4s-.7-.1-1-.4-.4-.6-.4-.9v-25.8h.8c0,0-11.3,17.1-11.3,17.1,0,.2-.2.3-.4.4-.2.1-.4.2-.6.2s-.4,0-.6-.2c-.2-.1-.4-.2-.5-.4l-11.3-17.2.8-.6v26.5c0,.4-.1.7-.4.9-.3.3-.6.4-1,.4s-.7-.1-.9-.4-.4-.6-.4-.9v-28.5c0-.3.1-.6.4-.9.3-.3.6-.4,1-.4Z"></path><path class="cls-2" d="M463.3,260.4h16.3c.4,0,.7.1,1,.4s.4.6.4,1-.1.7-.4.9c-.3.2-.6.4-1,.4h-15.3l.4-.8v12.5l-.5-.6h13.3c.4,0,.7.1,1,.4.3.3.4.6.4.9s-.1.7-.4.9c-.3.2-.6.4-1,.4h-13.2l.4-.4v12.8l-.2-.3h15.1c.4,0,.7.1,1,.4s.4.6.4.9-.1.7-.4.9c-.3.2-.6.4-1,.4h-16.3c-.4,0-.7-.1-1-.4-.3-.3-.4-.6-.4-.9v-28.5c0-.4.1-.7.4-.9.3-.3.6-.4,1-.4Z"></path><path class="cls-2" d="M507,292c-2.3,0-4.2-.3-5.9-1-1.7-.7-3.3-1.8-4.8-3.3-.2-.1-.3-.3-.4-.5-.1-.2-.2-.4-.2-.6,0-.4.1-.7.4-1,.3-.3.6-.4,1-.4s.7.2,1,.4c1.2,1.2,2.5,2.2,3.9,2.9s3.1,1,4.7,1,2.7-.2,3.8-.7,2-1.1,2.7-1.9c.7-.8,1-1.8,1-2.9,0-1.4-.4-2.5-1.1-3.3-.7-.8-1.7-1.5-2.9-2.1-1.2-.6-2.6-1.1-4.1-1.5-1.2-.4-2.4-.8-3.5-1.3s-2.1-1-2.9-1.7c-.8-.7-1.5-1.5-2-2.5-.5-1-.7-2.2-.7-3.5s.4-3,1.2-4.2c.8-1.2,2-2.2,3.5-2.9,1.5-.7,3.3-1,5.3-1s3.4.3,5.1.9c1.6.6,2.9,1.5,3.9,2.6.4.5.7.9.7,1.3s-.2.6-.4.9c-.3.3-.6.4-1,.4s-.6-.1-.8-.3c-.5-.6-1.1-1.2-1.9-1.7-.8-.5-1.6-.9-2.6-1.1s-1.9-.4-2.9-.4-2.6.2-3.8.6c-1.1.4-2,1-2.6,1.8-.6.8-1,1.8-1,2.9s.4,2.3,1.1,3.1c.7.8,1.6,1.4,2.8,2,1.2.5,2.4,1,3.7,1.4,1.3.4,2.5.8,3.7,1.2,1.2.5,2.2,1,3.1,1.7.9.7,1.6,1.5,2.1,2.6.5,1,.8,2.3.8,3.9s-.4,2.9-1.3,4.1c-.9,1.2-2,2.2-3.5,2.9-1.5.7-3.3,1.1-5.3,1.1Z"></path></g><g><rect class="cls-1" x="228.7" y="275.8" width="59.5" height="2.2"></rect><rect class="cls-1" x="536.8" y="275.8" width="59.5" height="2.2"></rect></g></svg> 