<svg id="016b3f8f-694d-4dd8-b264-d6b2fee94528" data-name="Layer 1" xmlns="http://www.w3.org/2000/svg" viewBox="0 0 412.73 142.83"><title>NComputing-Compute-Smartly</title><circle cx="69.51" cy="6.05" r="6.05" style="fill:#00a1e4"/><circle cx="6.05" cy="75.21" r="6.05" style="fill:#00a1e4"/><path d="M72.76,19.48a9.31,9.31,0,0,1-6.93-3.09L55.06,56.12c-.29,1.1-.95,1.88-1.71,1.88s-1.18-.51-1.52-1.3L39.39,28.08c-2.47-5.69-6.46-9.38-11-9.38-5.51,0-10.25,5.52-12.38,13.46l-10.29,38a9.34,9.34,0,0,1,10.54,2.36L26.72,33.95c.3-1.08.95-1.83,1.7-1.83s1.18.52,1.52,1.31l12.48,28.7c2.47,5.64,6.45,9.29,10.93,9.29,5.49,0,10.22-5.48,12.36-13.38L76.37,18.76A9.3,9.3,0,0,1,72.76,19.48Z" transform="translate(-3.27 -3.8)" style="fill:#62bb46"/><path d="M103.13,71.42H101.9a46,46,0,0,1-15.35-2.28h0a21.62,21.62,0,0,1-10.18-6.91h0a16.9,16.9,0,0,1-3.28-7.69h0a18.26,18.26,0,0,1-.25-3.08h0a26.39,26.39,0,0,1,1-6.83h0a27.23,27.23,0,0,1,4.27-9h0a35.47,35.47,0,0,1,6.64-7h0A41.35,41.35,0,0,1,98,21.85h0a51.68,51.68,0,0,1,15.85-2.49h3.94l-.49,2.31c-.08.39-.22,1.07-.39,2h0q-.27,1.38-.55,3h0L116,28.22h-2.8a47.49,47.49,0,0,0-9,.93h0a33.6,33.6,0,0,0-8.45,2.75h0a25.39,25.39,0,0,0-8,6h0a19.42,19.42,0,0,0-4.28,7.78h0a16.77,16.77,0,0,0-.62,4.34h0a11.9,11.9,0,0,0,.44,3.29h0a9.78,9.78,0,0,0,4.29,5.48h0a20.14,20.14,0,0,0,7,2.89h0a39.87,39.87,0,0,0,8.69.94H104l.88,0h0l2.95-.19-1,2.77L106.07,67h0q-.54,1.44-1.14,3.15h0l-.45,1.28Z" transform="translate(-3.27 -3.8)" style="fill:#414141"/><path d="M123.72,71.7a17,17,0,0,1-6.79-1.3h0a12.87,12.87,0,0,1-5.14-4h0A14.49,14.49,0,0,1,109,59.17h0a20.45,20.45,0,0,1-.14-2.43h0a24.18,24.18,0,0,1,.87-6.26h0a28.58,28.58,0,0,1,3.48-8h0a27.12,27.12,0,0,1,5.93-6.57h0a25.2,25.2,0,0,1,7-4.09h0a21.51,21.51,0,0,1,7.66-1.45h0a17,17,0,0,1,7.11,1.39h0a12.37,12.37,0,0,1,5.1,4.29h0a15.22,15.22,0,0,1,2.64,7.14h0a18.58,18.58,0,0,1,.1,2h0a24.65,24.65,0,0,1-.9,6.34h0A28.64,28.64,0,0,1,144,59.92h0a27.79,27.79,0,0,1-6.36,6.85h0a25.33,25.33,0,0,1-6.56,3.65h0a21.19,21.19,0,0,1-7.39,1.28h0Zm5.14-32.37a13.18,13.18,0,0,0-3.53,2.14h0a17.52,17.52,0,0,0-3.82,4.39h0A20.33,20.33,0,0,0,119,51.47h0a18.28,18.28,0,0,0-.68,4.71h0c0,.42,0,.83.06,1.22h0a7.25,7.25,0,0,0,1.69,4.14h0A4.77,4.77,0,0,0,122,62.89h0a7.75,7.75,0,0,0,2.92.51h0a10.7,10.7,0,0,0,3.69-.66h0a12.06,12.06,0,0,0,3.43-2h0a18,18,0,0,0,4-4.46h0a19.92,19.92,0,0,0,2.45-5.53h0a17.88,17.88,0,0,0,.64-4.64h0q0-.59,0-1.18h0a7.64,7.64,0,0,0-1.53-4.27h0a4.63,4.63,0,0,0-1.94-1.46h0a7.49,7.49,0,0,0-3-.57h0a10.29,10.29,0,0,0-3.75.65Z" transform="translate(-3.27 -3.8)" style="fill:#414141"/><path d="M190.77,70.79s.92-2.57.94-2.64h0c0-.06.92-3.21,1.34-4.72h0q1.27-4.54,2.34-8.54h0c.28-1.05,2.47-9.39,2.76-10.56h0a13.06,13.06,0,0,0,.43-3h0a2.45,2.45,0,0,0-.25-1.33h0a1.5,1.5,0,0,0-.76-.52h0a6.17,6.17,0,0,0-2.08-.29h0a14.36,14.36,0,0,0-4.26.86h0a42.47,42.47,0,0,0-5.76,2.47h0c-.08.35-7.44,28.24-7.44,28.24h-9.52l1.86-6.7c.74-2.57,2.52-9.13,2.52-9.13.31-1.17,1.41-5.33,1.41-5.33.63-2.38,1.08-4.13,1.35-5.24h0a18.41,18.41,0,0,0,.46-2.68h0c0-.17,0-.34,0-.49h0a2.65,2.65,0,0,0-.16-1h0a1.22,1.22,0,0,0-.6-.68h0a5.47,5.47,0,0,0-2.27-.32h0a12.37,12.37,0,0,0-4.23,1h0a58.86,58.86,0,0,0-6,2.84h0c-.21.76-7.32,27.71-7.32,27.71H146l.65-2.41c.06-.23.45-1.57,1.18-4.13h0q1.09-3.79,3.45-12.64h0q.77-2.88,2.07-7.78h0q1.29-4.88,2.84-11.07h0l.36-1.45h9.5l-.63,2.26q1.47-.7,3.13-1.38h0a20.3,20.3,0,0,1,7.5-1.8h0a10.68,10.68,0,0,1,6.53,1.83h0a7.93,7.93,0,0,1,2.23,2.53h0a58.57,58.57,0,0,1,6.85-2.95h0a21.37,21.37,0,0,1,6.77-1.41h0c3.57,0,6.64,1.1,8.4,3.66h0a9,9,0,0,1,1.53,5.24h0a15.54,15.54,0,0,1-.58,4h0c-.67,2.5-7.3,27.49-7.3,27.49Z" transform="translate(-3.27 -3.8)" style="fill:#414141"/><path d="M201.7,86.82l.81-2.5c0-.08,2.67-9.66,2.67-9.66,1.67-6.09,5-18.33,5-18.33C211,53.26,213,45.61,213,45.61c1.07-4.07,3.42-13.16,3.42-13.16l.36-1.39,1.43,0q1.17,0,2.3,0h1.71a63.23,63.23,0,0,1,11.65.81h0a19.45,19.45,0,0,1,7.41,3.05h0a12.41,12.41,0,0,1,4.85,6.54h0a13.5,13.5,0,0,1,.63,4.15h0a19.13,19.13,0,0,1-.69,4.91h0a24.08,24.08,0,0,1-5.35,10.07h0A27.5,27.5,0,0,1,231.92,67h0a36.05,36.05,0,0,1-9.09,2.83h0a54,54,0,0,1-7.22.78h0l-4.2,16.2Zm16.12-24.49h0a38.47,38.47,0,0,0,3.95-.49h0a24.72,24.72,0,0,0,5.48-1.54h0a17.3,17.3,0,0,0,6.06-4.21h0a15.23,15.23,0,0,0,3.37-6.42h0a10.53,10.53,0,0,0,.4-2.74h0a6.46,6.46,0,0,0-.35-2.18h0a6.24,6.24,0,0,0-2.38-3.17h0a12.1,12.1,0,0,0-4.19-1.67h0a28.24,28.24,0,0,0-6-.57H224C223.85,40,218,61.5,217.82,62.33Z" transform="translate(-3.27 -3.8)" style="fill:#414141"/><path d="M247.58,68a9.15,9.15,0,0,1-1.49-5.26h0a17,17,0,0,1,.65-4.42h0c.51-1.89,3.42-12.37,3.42-12.37.57-2.12,3.74-14.63,3.74-14.63h9.52l-5.7,20.89c-.63,2.42-1.07,4.14-1.34,5.13h0a14.62,14.62,0,0,0-.52,3.44h0a3.58,3.58,0,0,0,.22,1.42h0a1,1,0,0,0,.51.51h0a3.84,3.84,0,0,0,1.67.29h0a18.33,18.33,0,0,0,6.63-1.55h0A52.46,52.46,0,0,0,270.28,59h0l.87-3.14h0q1-3.46,2.35-8.63h0c.66-2.45,4.08-15.9,4.08-15.9h9.52l-4.92,17.84c-.81,3-5.65,21.64-5.65,21.64h-9.36l.65-2.42q-1.59.74-3.4,1.49h0A22.17,22.17,0,0,1,256,71.7h-.13c-3.52,0-6.55-1.16-8.28-3.72Z" transform="translate(-3.27 -3.8)" style="fill:#414141"/><path d="M290.29,67.4A9,9,0,0,1,287.92,61h0a18,18,0,0,1,.68-4.63h0c.7-2.61,3.77-13.72,4.68-17.08h-5.92l2.13-7.94h6.23L298,23H307l-2.24,8.35H317.4l-2.13,7.94H302.65c-.21.74-4.16,15.18-4.69,17.16h0a10.63,10.63,0,0,0-.41,2.69h0a2.89,2.89,0,0,0,.65,2.11h0c.64.73,2.47,1.45,5.69,1.43h0l1.48,0h0l1.17,0h2.84L306,70.73l-1.09.15c-.36,0-.74.06-1.43.09h0c-.67,0-1.25,0-1.75,0h0c-5,0-9-1-11.49-3.6Z" transform="translate(-3.27 -3.8)" style="fill:#414141"/><path d="M347.52,70.79l.75-2.46c.18-.61,3.7-13.3,3.7-13.3.33-1.22,2.5-9.52,2.77-10.6h0a13.41,13.41,0,0,0,.44-3h0a3,3,0,0,0-.25-1.4h0c-.09-.14-.19-.28-.64-.46h0a6.29,6.29,0,0,0-2.22-.31h0a16,16,0,0,0-5,1.15h0a56.25,56.25,0,0,0-6.31,2.76h0l-2.83,10.32c-.73,2.71-4.47,17.34-4.47,17.34h-9.52s1.09-4,1.87-6.75h0c.77-2.69,3.31-12.08,3.31-12.08.66-2.46,2.3-8.66,2.3-8.66.87-3.3,3.06-12,3.06-12H344l-.7,2.54a52.25,52.25,0,0,1,5.81-2.26h0a22.44,22.44,0,0,1,6.34-1.2h0c3.37,0,6.33,1.15,8.05,3.66h0A9,9,0,0,1,365,39.28h0a16,16,0,0,1-.6,4.12h0c-.8,3-3.21,11.57-3.56,12.9h0c-.57,2.12-3.71,14.49-3.71,14.49Z" transform="translate(-3.27 -3.8)" style="fill:#414141"/><path d="M360.47,86.82l1.17-8.27,1.63,0c2.71,0,5.16-.19,7.34-.43h0a28.24,28.24,0,0,0,5.91-1.27h0a14.12,14.12,0,0,0,6-3.58h0a12.71,12.71,0,0,0,2-3h0a37.51,37.51,0,0,1-7.75-1h0a17.71,17.71,0,0,1-7.48-3.57h0a13,13,0,0,1-4.2-6.34h0a12.83,12.83,0,0,1-.55-3.83h0a21.34,21.34,0,0,1,.81-5.52h0a21.28,21.28,0,0,1,5.53-9.55h0a29.73,29.73,0,0,1,9.47-6.4h0a33.26,33.26,0,0,1,8.12-2.34h0a64.37,64.37,0,0,1,9.71-.64h6.54S400,48.44,399,52.18h0c-.68,2.53-3.35,12.79-3.94,15h0a25.28,25.28,0,0,1-5,10.2h0a23.91,23.91,0,0,1-8,5.95h0a38.28,38.28,0,0,1-8.37,2.59h0a57.65,57.65,0,0,1-11,.93h-2.2Zm28.69-47.14a27,27,0,0,0-5.21,1.48h0a15.37,15.37,0,0,0-6,4h0a14.31,14.31,0,0,0-3.29,6h0a11.37,11.37,0,0,0-.43,2.92h0a6.26,6.26,0,0,0,.46,2.46h0a6.58,6.58,0,0,0,3.07,3.32h0a16.51,16.51,0,0,0,4.07,1.47h0a23.23,23.23,0,0,0,5.25.58h0c.18-.63,3-10.79,3-10.79.45-1.69,2.62-9.94,3.1-11.82h0a31.39,31.39,0,0,0-4,.37Z" transform="translate(-3.27 -3.8)" style="fill:#414141"/><circle cx="322.32" cy="20.8" r="6.05" style="fill:#00a1e4"/><path d="M325.57,34.23A9.29,9.29,0,0,1,320,32.35h0c-.19.76-2,7.85-2.7,10.58q-1.15,4.35-2.12,8c-.74,2.76-4.71,17.14-4.79,17.38l-.82,2.51h9.66s.84-3.22,1.68-6.56,2-7.68,3.43-13.15c.62-2.29,4.89-17.58,4.89-17.58A9.3,9.3,0,0,1,325.57,34.23Z" transform="translate(-3.27 -3.8)" style="fill:#414141"/><path d="M416,35.42A4.55,4.55,0,1,1,411.46,31,4.45,4.45,0,0,1,416,35.42Zm-8,0A3.43,3.43,0,0,0,411.49,39a3.39,3.39,0,0,0,3.38-3.51,3.42,3.42,0,1,0-6.83,0Zm2.73,2.32h-1V33.31a9,9,0,0,1,1.7-.14,2.75,2.75,0,0,1,1.54.32,1.23,1.23,0,0,1,.43,1,1.14,1.14,0,0,1-.92,1v.05a1.31,1.31,0,0,1,.81,1.08,3.38,3.38,0,0,0,.32,1.11h-1.11a3.81,3.81,0,0,1-.35-1.08c-.08-.49-.35-.7-.92-.7h-.49Zm0-2.51h.49c.57,0,1-.19,1-.65s-.3-.68-.95-.68a2.46,2.46,0,0,0-.57.05Z" transform="translate(-3.27 -3.8)" style="fill:#414141"/><path d="M85.58,120.63q.63-5.25,1-8.09t.53-4.2q.21-1.58.21-1.84.47-1.63,1-3.52a17.31,17.31,0,0,1,1.39-3.52,8.74,8.74,0,0,1,2.23-2.73,5.43,5.43,0,0,1,3.52-1.1,10.07,10.07,0,0,1,1.71.13,5.8,5.8,0,0,1,1.44.45,9.46,9.46,0,0,1,1.34.76A15.92,15.92,0,0,1,101.34,98a7.5,7.5,0,0,1,.6.58,1.42,1.42,0,0,1,.08.63,2.16,2.16,0,0,1-.47,1.31,1.61,1.61,0,0,1-1.37.63,2,2,0,0,1-1.21-.34,7.48,7.48,0,0,1-.92-.79,6.78,6.78,0,0,0-.95-.79,2.23,2.23,0,0,0-1.29-.34,2.48,2.48,0,0,0-1.47.45,4.14,4.14,0,0,0-1.08,1.13,5.49,5.49,0,0,0-.68,1.52,12.2,12.2,0,0,0-.34,1.58l-2.47,16.81c0,.07,0,.24,0,.5s0,.46,0,.6v.92a5.83,5.83,0,0,0,.11,1.1,2.53,2.53,0,0,0,.37.95.88.88,0,0,0,.79.39.9.9,0,0,0,.58-.21,19.37,19.37,0,0,0,4.33-3.91A54.13,54.13,0,0,0,99.34,116l.29-.5q.24-.39.47-.84t.45-.89l.31-.66a6.73,6.73,0,0,0,.47-1.42,9.74,9.74,0,0,1,.39-1.37,2.4,2.4,0,0,1,.71-1,2.27,2.27,0,0,1,1.47-.39,2.08,2.08,0,0,1,1.42.63A2,2,0,0,1,106,111v.11a32.29,32.29,0,0,1-3.39,7q-2.08,3.21-4.6,6.36a13,13,0,0,1-3.62,3,9.13,9.13,0,0,1-4.57,1.16h-.26A5.34,5.34,0,0,1,86.39,126a9.73,9.73,0,0,1-.81-4.12Z" transform="translate(-3.27 -3.8)" style="fill:#ff6000"/><path d="M107.84,120.63l1.94-13.5a1.35,1.35,0,0,1,.6-1,2.07,2.07,0,0,1,1.13-.31,2.54,2.54,0,0,1,1.84.66,5.81,5.81,0,0,1,1.16,1.6h.05a2.62,2.62,0,0,0,1.13-.24,2.86,2.86,0,0,1,1.23-.24,4.16,4.16,0,0,1,2.86,1.05,8.21,8.21,0,0,1,1.92,2.55,13,13,0,0,1,1.08,3.23,16.07,16.07,0,0,1,.34,3,9.23,9.23,0,0,1-.81,3.52,16.31,16.31,0,0,1-2.15,3.68,13.42,13.42,0,0,1-3,2.89,6,6,0,0,1-3.41,1.16A4.85,4.85,0,0,1,111,128a6,6,0,0,1-1.84-1.87,8,8,0,0,1-1-2.55,12.82,12.82,0,0,1-.32-2.78Zm4.41.32q.1.53.21,1.21a6,6,0,0,0,.31,1.23,1.79,1.79,0,0,0,.6.84,1.19,1.19,0,0,0,1.13,0q.68-.63,1.47-1.42a19.72,19.72,0,0,0,1.5-1.68,9.72,9.72,0,0,0,1.18-1.89,4.85,4.85,0,0,0,.47-2.1,7.8,7.8,0,0,0-.26-3.28,4.19,4.19,0,0,0-1.34-2.15,1.81,1.81,0,0,0-2-.16,5.6,5.6,0,0,0-2.21,2.71,10.94,10.94,0,0,0-.87,3.18,26,26,0,0,0-.24,3.34Z" transform="translate(-3.27 -3.8)" style="fill:#ff6000"/><path d="M125.45,108.78q-.13-1.39-.39-2.76a1.41,1.41,0,0,1,.76-1.47,4.28,4.28,0,0,1,1.65-.31h1.05a2.43,2.43,0,0,1,1.1.89,3.29,3.29,0,0,1,.42,1.16,6.51,6.51,0,0,1,.08,1.31,10.68,10.68,0,0,0,0,1.31,5.23,5.23,0,0,1,.05.89q0,.63,0,1.31t.1,1.26a1.4,1.4,0,0,0,.24.74l4.62-8.67a2.7,2.7,0,0,1,.92-1,1.88,1.88,0,0,1,1.34-.29,4.27,4.27,0,0,1,1.73.45,1.91,1.91,0,0,1,.81.89,3.72,3.72,0,0,1,.26,1.34q0,.79.08,1.73,0,.31.05,1.18t.13,1.81q.08.95.16,1.79t.13,1.16H141l.39-1.42q.29-1.05.66-2.21t.68-2.21q.32-1.05.47-1.47l.21-.45q.16-.34.31-.74t.32-.74a5.41,5.41,0,0,0,.21-.5q.37-.58.76-.6l.87,0a2.87,2.87,0,0,1,2,.66A4,4,0,0,1,149,105.5a11.38,11.38,0,0,1,.5,2.18q.16,1.18.37,2.18s.05,0,.05.08a.18.18,0,0,1-.05.13l2.89,15.29a.76.76,0,0,1,.24.37,2.73,2.73,0,0,1,0,.42,1.93,1.93,0,0,1-1.68,1.68,3.78,3.78,0,0,1-1.81-.58,2.13,2.13,0,0,1-1.18-1.47l-2.42-12.45-.26-.42q-.11.26-.45,1.5t-.81,3.1q-.47,1.87-1.08,4.18l-1.23,4.73a1,1,0,0,1-.6.71,2.1,2.1,0,0,1-.87.24,5,5,0,0,1-1.79-.26,2.2,2.2,0,0,1-1.05-.79,3.4,3.4,0,0,1-.53-1.26q-.16-.74-.26-1.68,0-.21-.1-1.5t-.24-2.94q-.13-1.66-.29-3.34t-.21-2.68v-.5a.62.62,0,0,0-.05-.21c0-.09-.1-.24-.21-.45l-1.52,3.63-2.42,8.88-.53,3.26a1,1,0,0,1-.29.55,1.67,1.67,0,0,1-.55.37,2.8,2.8,0,0,1-.63.18,3.3,3.3,0,0,1-.53.05,2.64,2.64,0,0,1-2-.84,2.81,2.81,0,0,1-.87-1.84c0-.24-.07-.73-.11-1.44s-.09-1.57-.16-2.55-.13-2-.18-3.1-.11-2.12-.18-3.1l-.18-2.57q-.08-1.1-.08-1.47v-.21Q125.58,110.17,125.45,108.78Z" transform="translate(-3.27 -3.8)" style="fill:#ff6000"/><path d="M156.57,119.21a9.14,9.14,0,0,1-1.81-.89,1.9,1.9,0,0,1-.81-1.73.48.48,0,0,1,.16-.42.8.8,0,0,0,.26-.31l.42-.58.68-.92.68-.95.42-.6q0-.68-.08-1.66a8,8,0,0,1,.05-1.84,3.08,3.08,0,0,1,.6-1.47,1.88,1.88,0,0,1,1.58-.6,1.39,1.39,0,0,1,1.05.45,1.38,1.38,0,0,0,1.05.45H161a35.59,35.59,0,0,1,4.44-3,10.26,10.26,0,0,1,5.12-1.29,4.31,4.31,0,0,1,3,1.08,3.88,3.88,0,0,1,1.18,3,12.64,12.64,0,0,1-1.1,5,30,30,0,0,1-2.76,5,44.17,44.17,0,0,1-3.57,4.6q-1.92,2.15-3.49,3.73a2.34,2.34,0,0,1-.47.45,5.43,5.43,0,0,0-.58.5c-.21.18-.44.39-.68.63L161.72,140c0,.32,0,.65,0,1a3,3,0,0,1-.21,1,1.91,1.91,0,0,1-.53.74,1.47,1.47,0,0,1-1,.29,3.7,3.7,0,0,1-.84-.13,4.11,4.11,0,0,1-1-.39,3.27,3.27,0,0,1-.81-.63A1.2,1.2,0,0,1,157,141Zm4.89,3.31h.21s.15-.11.34-.32l.68-.74.79-.87q.39-.45.6-.71A14.08,14.08,0,0,0,167,117a19.06,19.06,0,0,0,2.13-3.49,11.13,11.13,0,0,0,1-3.18,2.1,2.1,0,0,0-.47-2q-.66-.55-2.26.13a17.91,17.91,0,0,0-4.33,3.15,7.66,7.66,0,0,0-1.16,1.21,3.09,3.09,0,0,0-.63,1.52Z" transform="translate(-3.27 -3.8)" style="fill:#ff6000"/><path d="M186.92,123.68q-.37.79-.74,1.71a9.74,9.74,0,0,1-.84,1.65,4.57,4.57,0,0,1-1.16,1.24,2.86,2.86,0,0,1-1.73.5,4.88,4.88,0,0,1-3-.92,7.18,7.18,0,0,1-2-2.31,10.32,10.32,0,0,1-1.08-3,16.06,16.06,0,0,1-.32-3l.42-12.71a1.15,1.15,0,0,1,.18-.76,3.05,3.05,0,0,1,.63-.74,3.33,3.33,0,0,1,.89-.55,2.39,2.39,0,0,1,.92-.21,2.94,2.94,0,0,1,2,.76,2.54,2.54,0,0,1,.84,2v.53a9.73,9.73,0,0,0-1,2.47,24.72,24.72,0,0,0-.66,3.28,34.29,34.29,0,0,0-.29,3.6,22.68,22.68,0,0,0,.13,3.36,10.71,10.71,0,0,0,.6,2.6,1.94,1.94,0,0,0,1.1,1.29,2.18,2.18,0,0,0,.81-.26,3.84,3.84,0,0,0,1.18-1,10.77,10.77,0,0,0,1.31-2.08,16.28,16.28,0,0,0,1.21-3.55,36.86,36.86,0,0,0,.79-5.36,72.37,72.37,0,0,0,.16-7.57q.21-.58.6-.63a6.3,6.3,0,0,1,.81-.05q.47,0,.79,0a1.18,1.18,0,0,1,.68.39,4.25,4.25,0,0,1,.58.79,3.57,3.57,0,0,1,.31.58l.89,23.27a2,2,0,0,1-.42,1.31,1.46,1.46,0,0,1-1.21.53,4.68,4.68,0,0,1-.63-.05,2.92,2.92,0,0,1-.74-.21,2.7,2.7,0,0,1-.66-.39.89.89,0,0,1-.34-.55l-.89-5.25Z" transform="translate(-3.27 -3.8)" style="fill:#ff6000"/><path d="M199.41,113.33a2.4,2.4,0,0,0-1.31.37,2.49,2.49,0,0,1-1.37.37l-.55,0-.55,0a1.8,1.8,0,0,0-.47-.42l-.53-.34a1.79,1.79,0,0,1-.45-.45,1.27,1.27,0,0,1-.18-.74,1.57,1.57,0,0,1,.63-1.29,6.66,6.66,0,0,1,1.47-.87q.84-.37,1.71-.68a4.89,4.89,0,0,0,1.39-.74v-2.31q0-3.89-.37-7.8t-.37-7.75q0-1.05.53-1.37a2.74,2.74,0,0,1,1.42-.32,1.9,1.9,0,0,1,1.55.6,3.6,3.6,0,0,1,.71,1.47,7.81,7.81,0,0,1,.21,1.84q0,1,.05,1.65t.1,2.42q.1,1.73.21,3.68t.21,3.68q.1,1.73.16,2.42a8.13,8.13,0,0,0,.81-.29q.6-.24,1.29-.47l1.29-.45.87-.32q1.37-.58,2.84-1.29a6.83,6.83,0,0,1,3-.71,1.91,1.91,0,0,1,1.6.71,2.62,2.62,0,0,1,.55,1.66,1.08,1.08,0,0,1-.53,1,11,11,0,0,1-1.1.58l-9.56,3.57-.32.18a1.23,1.23,0,0,0-.31.24v1.68q0,1.84.08,3.81a37.53,37.53,0,0,0,.34,3.81q.26,1.58.58,3.1a15.28,15.28,0,0,1,.32,3.1,3.64,3.64,0,0,1-.32,1.26,1.06,1.06,0,0,1-1,.79,3.23,3.23,0,0,1-2.31-.84,3.3,3.3,0,0,1-1-2.26q-.26-2.73-.55-6t-.55-6.25Z" transform="translate(-3.27 -3.8)" style="fill:#ff6000"/><path d="M239,113.75a11.93,11.93,0,0,1-.24,1.47,2.61,2.61,0,0,1-.45.95,4.67,4.67,0,0,1-.89.87q-.58.45-1.58,1.26t-2.47,2.13q-1.47,1.31-3.57,3.42L228,125.46a14.79,14.79,0,0,1-1.86,1.5,10.73,10.73,0,0,1-2,1.08,5.87,5.87,0,0,1-2.21.42,3.74,3.74,0,0,1-3.31-1.52,6,6,0,0,1-1.05-3.52q0-1.31.08-2.21a18.72,18.72,0,0,1,.39-2.31l-1-.92a1.4,1.4,0,0,1-.42-1.08,1,1,0,0,1,.29-.84,1.73,1.73,0,0,1,.68-.29c.26-.05.52-.11.76-.18a.8.8,0,0,0,.53-.42l.39-1.16.6-1.76q.32-.92.6-1.73l.39-1.13q.37-.89.81-1.81a8.35,8.35,0,0,1,1.05-1.66,5.19,5.19,0,0,1,1.42-1.21,3.75,3.75,0,0,1,1.92-.47,3.1,3.1,0,0,1,1.55.58,10.93,10.93,0,0,1,1.76,1.39,10,10,0,0,1,1.42,1.71,3,3,0,0,1,.58,1.52,2.9,2.9,0,0,1-.37,1.44,5.5,5.5,0,0,1-.92,1.21,10.88,10.88,0,0,1-1.18,1q-.63.47-1.16.89a.55.55,0,0,0-.21.1l-.26.16-.24.24-.39.39-.39.42-.24.26a7.18,7.18,0,0,1-.6.5l-1,.74-1,.74-.6.45-.21.42a3.3,3.3,0,0,0-.18.92q-.08.71-.18,1.6t-.18,1.81q-.08.92-.08,1.5a.15.15,0,0,0,.05.11c.07.07.12.1.16.1a1.11,1.11,0,0,0,.79-.37,2.2,2.2,0,0,1,.79-.53l8.41-7.78,2.15-3.31a3.36,3.36,0,0,1,1-.81,3.26,3.26,0,0,1,1.55-.47,2,2,0,0,1,1.39.5A2.67,2.67,0,0,1,239,113.75Zm-11.56-4.1a.65.65,0,0,0,.21-.63,1.51,1.51,0,0,0-.29-.74,1,1,0,0,0-.6-.39c-.25-.05-.47.08-.68.39-.11.14-.29.42-.55.84s-.53.85-.79,1.29-.48.81-.66,1.13-.21.44-.1.37Z" transform="translate(-3.27 -3.8)" style="fill:#ff6000"/><path d="M258.5,126.78a6,6,0,0,1,1.87-1.73,12.51,12.51,0,0,1,2.1-.95l2.15-.71a7.16,7.16,0,0,0,2.13-1.13q.58-.31,1.63-.95t2.08-1.39a18.3,18.3,0,0,0,1.79-1.5,2,2,0,0,0,.76-1.26,0,0,0,0,0-.05-.05q-.11,0-.11-.05l-.1-.11q-.26-.1-.84-.26a5.7,5.7,0,0,1-.68-.21q-6.78-.79-10.9-1.39A45.54,45.54,0,0,1,254,113.8a6.25,6.25,0,0,1-3-1.58,3.43,3.43,0,0,1-.74-2.26,3.67,3.67,0,0,1,.21-1.16,12.27,12.27,0,0,1,.5-1.26,11.78,11.78,0,0,1,.6-1.16,6.73,6.73,0,0,1,.58-.84,8.47,8.47,0,0,1,2.21-1.89,19.24,19.24,0,0,1,2.94-1.47q1.58-.63,3.18-1.1l2.92-.84a9.74,9.74,0,0,0,3-.71,12.78,12.78,0,0,1,3-.81,1.5,1.5,0,0,1,1.21.58,1.89,1.89,0,0,1,.47,1.21,1.91,1.91,0,0,1-1.23,2,6,6,0,0,1-1.23.37l-1.37.29-1.16.29-1.47.39-1.31.37a6,6,0,0,0-.68.21l-3.07,1.29a21.14,21.14,0,0,0-2.52,1.23,6.47,6.47,0,0,0-1.68,1.34,2.12,2.12,0,0,0-.55,1.55v.05a3.79,3.79,0,0,0,2.36,1.1q1.84.37,4.33.63l5.25.53a40.37,40.37,0,0,1,5.07.79,13.57,13.57,0,0,1,3.83,1.42,2.83,2.83,0,0,1,1.58,2.42,4.84,4.84,0,0,1-.24,1.37,2.84,2.84,0,0,1-.66,1.21,34.85,34.85,0,0,1-3.13,3,33,33,0,0,1-3.91,2.92,27.59,27.59,0,0,1-4.33,2.26,14.23,14.23,0,0,1-4.39,1.08,2,2,0,0,1-1.37-.55A1.72,1.72,0,0,1,258.5,126.78Z" transform="translate(-3.27 -3.8)" style="fill:#ff6000"/><path d="M279.47,108.78q-.13-1.39-.39-2.76a1.41,1.41,0,0,1,.76-1.47,4.28,4.28,0,0,1,1.65-.31h1.05a2.43,2.43,0,0,1,1.1.89,3.28,3.28,0,0,1,.42,1.16,6.51,6.51,0,0,1,.08,1.31,10.58,10.58,0,0,0,0,1.31,5.17,5.17,0,0,1,.05.89q0,.63,0,1.31t.11,1.26a1.4,1.4,0,0,0,.24.74l4.62-8.67a2.71,2.71,0,0,1,.92-1,1.88,1.88,0,0,1,1.34-.29,4.27,4.27,0,0,1,1.73.45,1.91,1.91,0,0,1,.81.89,3.72,3.72,0,0,1,.26,1.34q0,.79.08,1.73,0,.31.05,1.18t.13,1.81q.08.95.16,1.79t.13,1.16h.21l.39-1.42q.29-1.05.66-2.21t.68-2.21q.31-1.05.47-1.47l.21-.45q.16-.34.32-.74c.11-.26.21-.51.32-.74a5.28,5.28,0,0,0,.21-.5q.37-.58.76-.6l.87,0a2.87,2.87,0,0,1,2,.66A4,4,0,0,1,303,105.5a11.34,11.34,0,0,1,.5,2.18q.16,1.18.37,2.18s.05,0,.05.08a.18.18,0,0,1-.05.13l2.89,15.29a.75.75,0,0,1,.24.37,2.66,2.66,0,0,1,0,.42,1.94,1.94,0,0,1-1.68,1.68,3.79,3.79,0,0,1-1.81-.58,2.13,2.13,0,0,1-1.18-1.47l-2.42-12.45-.26-.42q-.11.26-.45,1.5t-.81,3.1q-.47,1.87-1.08,4.18l-1.23,4.73a1,1,0,0,1-.6.71,2.1,2.1,0,0,1-.87.24,5,5,0,0,1-1.79-.26,2.2,2.2,0,0,1-1.05-.79,3.42,3.42,0,0,1-.53-1.26q-.16-.74-.26-1.68,0-.21-.11-1.5t-.24-2.94q-.13-1.66-.29-3.34t-.21-2.68v-.5a.62.62,0,0,0-.05-.21c0-.09-.1-.24-.21-.45l-1.52,3.63L286,124.25l-.53,3.26a1,1,0,0,1-.29.55,1.66,1.66,0,0,1-.55.37,2.79,2.79,0,0,1-.63.18,3.29,3.29,0,0,1-.53.05,2.64,2.64,0,0,1-2-.84,2.81,2.81,0,0,1-.87-1.84c0-.24-.07-.73-.11-1.44s-.09-1.57-.16-2.55-.13-2-.18-3.1-.11-2.12-.18-3.1l-.18-2.57q-.08-1.1-.08-1.47v-.21Q279.6,110.17,279.47,108.78Z" transform="translate(-3.27 -3.8)" style="fill:#ff6000"/><path d="M321.15,114q-.47.84-1.08,2l-1.29,2.52q-.68,1.34-1.5,2.68a24.82,24.82,0,0,1-1.68,2.44,11.46,11.46,0,0,1-1.81,1.87,4.13,4.13,0,0,1-1.94.92,6.39,6.39,0,0,1-.95-.08,5.71,5.71,0,0,1-1.05-.26,2.23,2.23,0,0,1-.87-.53,1.24,1.24,0,0,1-.34-.92,62.71,62.71,0,0,1,.79-9.75,29.41,29.41,0,0,1,2.31-7.72,17.12,17.12,0,0,1,4-5.54,14.45,14.45,0,0,1,6-3.15l.39,0,.39,0a2.28,2.28,0,0,1,2.29,1.45,15.61,15.61,0,0,1,1.05,4.73q.34,3.23.47,8.3t.55,12.16a5.14,5.14,0,0,1,.18,1c0,.28,0,.61,0,1a1.45,1.45,0,0,1-.47,1.18,1.82,1.82,0,0,1-1.21.39,2.52,2.52,0,0,1-2.15-.84,4.91,4.91,0,0,1-.84-2.26s0-.32-.08-.84-.12-1.13-.21-1.81-.17-1.37-.24-2.08-.12-1.28-.16-1.73v-.21a8,8,0,0,1-.13-1.31,14.31,14.31,0,0,0-.13-1.52q-.11-.89-.16-1.79ZM320,103.61a14.36,14.36,0,0,0-2.78,2.84,12.46,12.46,0,0,0-1.94,3.47q-.26.79-.58,2.15t-.55,2.71q-.24,1.34-.39,2.47a14.38,14.38,0,0,0-.16,1.45s.08,0,.13-.11l.13-.16a18.25,18.25,0,0,0,4.6-6.8A26.93,26.93,0,0,0,320,103.61Z" transform="translate(-3.27 -3.8)" style="fill:#ff6000"/><path d="M331.7,126.41q-.11-1.89-.34-5.07t-.53-6.59q-.29-3.41-.6-6.46t-.53-4.73a.86.86,0,0,1,.63-.89,3.83,3.83,0,0,1,1.21-.21,3.39,3.39,0,0,1,1.55.42,1.89,1.89,0,0,1,1,1.16q0,.21.05.76c0,.37.06.74.08,1.13s0,.76.08,1.13.05.62.05.76v.76a.91.91,0,0,0,.05.29c0,.1.09.28.16.53l.24-.26.18-.21a26.61,26.61,0,0,1,1.63-2.13q.79-.92,1.63-1.73t1.87-1.73l2.39-2.13.47-.39a2.45,2.45,0,0,1,.29-.21.82.82,0,0,1,.29-.11,2.77,2.77,0,0,1,.42,0,3.3,3.3,0,0,1,1.81.6,1.88,1.88,0,0,1,.92,1.66,1.37,1.37,0,0,1-.26.76,4.12,4.12,0,0,1-.63.74,5.9,5.9,0,0,1-.76.6,3,3,0,0,1-.71.37q-1.37,1.21-2.89,2.76a30.7,30.7,0,0,0-2.84,3.34,19,19,0,0,0-2.15,3.73,9.72,9.72,0,0,0-.84,3.89,23.36,23.36,0,0,0,.26,3.52,23.65,23.65,0,0,1,.26,3.52v1.84q-.42.42-.74.68a1.35,1.35,0,0,1-.89.26,2.57,2.57,0,0,1-1.73-.76A3.75,3.75,0,0,1,331.7,126.41Z" transform="translate(-3.27 -3.8)" style="fill:#ff6000"/><path d="M352.59,113.33a2.4,2.4,0,0,0-1.31.37,2.49,2.49,0,0,1-1.37.37l-.55,0-.55,0a1.79,1.79,0,0,0-.47-.42l-.53-.34a1.78,1.78,0,0,1-.45-.45,1.27,1.27,0,0,1-.18-.74,1.57,1.57,0,0,1,.63-1.29,6.67,6.67,0,0,1,1.47-.87q.84-.37,1.71-.68a4.88,4.88,0,0,0,1.39-.74v-2.31q0-3.89-.37-7.8t-.37-7.75q0-1.05.53-1.37a2.75,2.75,0,0,1,1.42-.32,1.9,1.9,0,0,1,1.55.6,3.61,3.61,0,0,1,.71,1.47,7.81,7.81,0,0,1,.21,1.84q0,1,.05,1.65t.11,2.42q.1,1.73.21,3.68t.21,3.68q.11,1.73.16,2.42a8,8,0,0,0,.81-.29l1.29-.47,1.29-.45.87-.32q1.37-.58,2.84-1.29a6.83,6.83,0,0,1,3-.71,1.91,1.91,0,0,1,1.6.71,2.62,2.62,0,0,1,.55,1.66,1.08,1.08,0,0,1-.53,1,10.9,10.9,0,0,1-1.1.58l-9.56,3.57-.31.18a1.21,1.21,0,0,0-.32.24v1.68q0,1.84.08,3.81a37.12,37.12,0,0,0,.34,3.81q.26,1.58.58,3.1a15.28,15.28,0,0,1,.32,3.1,3.64,3.64,0,0,1-.32,1.26,1.06,1.06,0,0,1-1,.79,3.23,3.23,0,0,1-2.31-.84,3.3,3.3,0,0,1-1-2.26q-.26-2.73-.55-6t-.55-6.25Z" transform="translate(-3.27 -3.8)" style="fill:#ff6000"/><path d="M370.6,125q0-2.21.1-4.31t.11-4.31q-.16-6-.11-11.74a112.85,112.85,0,0,0-.53-11.79,1.57,1.57,0,0,1,.47-1.34,2.42,2.42,0,0,1,1.42-.34,3.17,3.17,0,0,1,2.08.71,2.55,2.55,0,0,1,.92,2q-.11,7.46.18,14.79t.29,14.84v4a4.16,4.16,0,0,1-.89.84,1.47,1.47,0,0,1-1.16.32,3.21,3.21,0,0,1-2.21-1.23A4.15,4.15,0,0,1,370.6,125Z" transform="translate(-3.27 -3.8)" style="fill:#ff6000"/><path d="M388.19,143.11q-.11-1.1-.13-2.68t0-3.31q0-1.73,0-3.52t.13-3.26v-1.89a7.72,7.72,0,0,0-.63-.76q-.37-.39-1.29-1.58t-2.6-3.52q-1.68-2.34-4.52-6.54a7,7,0,0,1-1.42-1.92,2.14,2.14,0,0,1-.21-1.23,1,1,0,0,1,.55-.68,2,2,0,0,1,.87-.21,3.79,3.79,0,0,1,1.89.47,6.28,6.28,0,0,1,1.52,1.21,11.14,11.14,0,0,1,1.23,1.6q.55.87,1.08,1.65l.79,1.21.95,1.44,1.16,1.76.63.68v-5.52q0-2.63-.11-5.12t-.11-5.07a1.55,1.55,0,0,1,.53-1.21,1.64,1.64,0,0,1,1.26-.42,4.58,4.58,0,0,1,1.34.32,2.65,2.65,0,0,1,.92.84,2.14,2.14,0,0,1,.39,1.37,14.52,14.52,0,0,0,0,1.52q.21,5,.34,10t.13,10q-.05.47-.05,1.92t0,3.28q0,1.84.05,3.83t.05,3.65q0,1.66.05,2.73a3.28,3.28,0,0,0,.08,1,1.29,1.29,0,0,1-.55,1.16,2.37,2.37,0,0,1-1.34.37,3.2,3.2,0,0,1-1.55-.29,1.94,1.94,0,0,1-.76-.79,3.73,3.73,0,0,1-.37-1.13A6.81,6.81,0,0,0,388.19,143.11Z" transform="translate(-3.27 -3.8)" style="fill:#ff6000"/><path d="M394.54,99.6a2.84,2.84,0,0,1,0-.55q0-.41.07-1a11.34,11.34,0,0,1,.22-1.25,8.59,8.59,0,0,1,.43-1.34,6.68,6.68,0,0,1,.69-1.27,3.88,3.88,0,0,1,1-1,3.65,3.65,0,0,1,1.38-.56,4.79,4.79,0,0,1,1.81,0,1.4,1.4,0,0,1,.77.27,3.16,3.16,0,0,1,.65.63,5.19,5.19,0,0,1,.53.82q.23.44.39.83a6.29,6.29,0,0,1,.21.82q.1.53.18,1.1c.05.39.1.75.13,1.11s.05.64.05.84a2.7,2.7,0,0,1-.26,1,5.06,5.06,0,0,1-.68,1.13,4.26,4.26,0,0,1-1,.9,2,2,0,0,1-1.13.37l-.56,0a7.59,7.59,0,0,1-.94,0,6.32,6.32,0,0,1-1.14-.12,3.69,3.69,0,0,1-1.15-.44,3.42,3.42,0,0,1-1-.92A3.94,3.94,0,0,1,394.54,99.6Zm2.19-.92-.08-.14a.32.32,0,0,1,0-.13.33.33,0,0,1,0-.1.33.33,0,0,0,0-.1c0-.1,0-.19,0-.27s0-.17,0-.27a.28.28,0,0,0-.16-.07c-.09,0-.13-.08-.13-.19a.22.22,0,0,1,0-.13l.09-.1.09-.1a.21.21,0,0,0,0-.13,2.3,2.3,0,0,1,0-.3c0-.15,0-.25,0-.3v0a.35.35,0,0,1,.21-.17.93.93,0,0,1,.29-.05.42.42,0,0,1,.24.05.35.35,0,0,1,.16.24s0,.06,0,.07a3.1,3.1,0,0,1,.38-.49,3.85,3.85,0,0,1,.52-.47,2.67,2.67,0,0,1,.57-.33,1,1,0,0,1,.54-.09.59.59,0,0,1,.41.29,1.65,1.65,0,0,1,.19.79,1.85,1.85,0,0,1-.19.85,2.15,2.15,0,0,1-.52.66,2.82,2.82,0,0,1-.75.46,3.37,3.37,0,0,1-.88.24l3.72.19h.18a.72.72,0,0,1,.23,0,5.21,5.21,0,0,0-.1-.67q-.09-.44-.23-1t-.31-1.07q-.17-.55-.36-1a4.24,4.24,0,0,0-.38-.74q-.19-.29-.36-.3a2.51,2.51,0,0,0-1.12,0,3.86,3.86,0,0,0-1.24.44,4.51,4.51,0,0,0-1.14.92,4.16,4.16,0,0,0-.82,1.38,5.31,5.31,0,0,0-.3,1.82,6.66,6.66,0,0,0,.44,2.26,1,1,0,0,0,.49.45,3.63,3.63,0,0,0,.79.27,5.35,5.35,0,0,0,.91.12l.86,0h1l.5-.47q.27-.24.51-.51a5.73,5.73,0,0,0,.44-.55,2.62,2.62,0,0,0,.32-.59,3.17,3.17,0,0,1-.55.08,5.06,5.06,0,0,1-.79,0q-.47,0-1.15-.17t-1.64-.36v.06c0,.08,0,.18,0,.3s0,.25,0,.39,0,.27,0,.39,0,.22,0,.3a.49.49,0,0,1-.05.2.2.2,0,0,1-.2.11h-.15l-.21,0-.19,0q-.08,0-.1-.07Zm.77-1.47c0,.11,0,.21,0,.31s0,.2,0,.31h.06l.16-.08.38-.21.73-.42A.72.72,0,0,0,399,97l.2-.24a1.37,1.37,0,0,0,.16-.25.51.51,0,0,0,.06-.2.07.07,0,0,0-.07-.07h-.12l-.27,0a1.64,1.64,0,0,0-.35.13,4,4,0,0,0-.49.28q-.28.19-.65.48Z" transform="translate(-3.27 -3.8)" style="fill:#ff6000"/><path d="M255.55,136.38q0-.89,3.15-1.29t6.83-.55l102.71-1.63q4.46,0,8.41.32t3.94,1.37c0,.18-.57.37-1.71.58s-2.41.4-3.81.58-2.89.32-4.47.45a21.67,21.67,0,0,1-3.41.08L265.54,138a49.59,49.59,0,0,1-6.7-.45C256.64,137.26,255.55,136.87,255.55,136.38Z" transform="translate(-3.27 -3.8)" style="fill:#ff6000"/></svg>